<?xml version="1.0" encoding="UTF-8" standalone="no"?>
<!-- Created with Inkscape (http://www.inkscape.org/) -->

<svg
   xmlns:dc="http://purl.org/dc/elements/1.1/"
   xmlns:cc="http://creativecommons.org/ns#"
   xmlns:rdf="http://www.w3.org/1999/02/22-rdf-syntax-ns#"
   xmlns:svg="http://www.w3.org/2000/svg"
   xmlns="http://www.w3.org/2000/svg"
   xmlns:sodipodi="http://sodipodi.sourceforge.net/DTD/sodipodi-0.dtd"
   xmlns:inkscape="http://www.inkscape.org/namespaces/inkscape"
   version="1.1"
   id="svg2"
   xml:space="preserve"
   width="940"
   height="400"
   viewBox="0 0 940 400"
   sodipodi:docname="logo-zscan.svg"
   inkscape:version="0.92.3 (d244b95, 2018-08-02)"><metadata
     id="metadata8"><rdf:RDF><cc:Work
         rdf:about=""><dc:format>image/svg+xml</dc:format><dc:type
           rdf:resource="http://purl.org/dc/dcmitype/StillImage" /><dc:title></dc:title></cc:Work></rdf:RDF></metadata><defs
     id="defs6"><clipPath
       clipPathUnits="userSpaceOnUse"
       id="clipPath18"><path
         d="M 0,612 H 792 V 0 H 0 Z"
         id="path16"
         inkscape:connector-curvature="0" /></clipPath><clipPath
       clipPathUnits="userSpaceOnUse"
       id="clipPath74"><path
         d="M 60.1045,448.631 H 191.23 V 366.759 H 60.1045 Z"
         id="path72"
         inkscape:connector-curvature="0" /></clipPath></defs><sodipodi:namedview
     pagecolor="#ffffff"
     bordercolor="#666666"
     borderopacity="1"
     objecttolerance="10"
     gridtolerance="10"
     guidetolerance="10"
     inkscape:pageopacity="0"
     inkscape:pageshadow="2"
     inkscape:window-width="1863"
     inkscape:window-height="1052"
     id="namedview4"
     showgrid="false"
     inkscape:zoom="0.28921569"
     inkscape:cx="528.00001"
     inkscape:cy="408.00001"
     inkscape:window-x="57"
     inkscape:window-y="0"
     inkscape:window-maximized="1"
     inkscape:current-layer="g14" /><g
     id="g10"
     inkscape:groupmode="layer"
     inkscape:label="LOGO ZSCAN SOFTWARE"
     transform="matrix(1.3333333,0,0,-1.3333333,0,400)"><g
       id="g12"><g
         id="g14"
         clip-path="url(#clipPath18)"><g
           id="g20"
           transform="translate(183.40317,125.78816)"><path
             d="m 0,0 c -6.613,3.104 -11.729,6.361 -15.33,9.767 l 10.069,10.525 9.776,10.979 c 1.899,-1.813 4.512,-3.514 7.818,-5.11 8.312,-3.91 17.745,-5.869 28.267,-5.869 16.735,0 25.808,4.613 27.214,13.831 v 0.613 c 0,2.6 -0.957,5.106 -2.854,7.508 -4.415,4.912 -12.539,7.361 -24.36,7.361 -20.75,0 -36.032,5.726 -45.861,17.144 -6.821,7.322 -10.224,15.84 -10.224,25.559 0,1.812 0.155,3.611 0.449,5.42 1.504,11.427 7.223,20.797 17.146,28.11 10.121,7.021 22.948,10.53 38.49,10.53 14.832,0 28.365,-2.857 40.593,-8.576 6.518,-3.103 11.578,-6.365 15.187,-9.766 L 76.528,96.823 c 0,0.603 -2.601,2.199 -7.813,4.814 -8.322,3.816 -17.692,5.709 -28.115,5.709 -16.842,0 -25.809,-4.404 -26.915,-13.226 v -1.812 c 0,-2.399 0.848,-4.51 2.561,-6.314 4.399,-4.908 12.526,-7.359 24.354,-7.359 20.648,0 36.032,-5.763 46.157,-17.289 6.517,-7.52 9.774,-15.993 9.774,-25.414 0,-2.001 -0.102,-3.905 -0.299,-5.713 C 94.925,18.692 89.161,9.421 78.94,2.402 68.816,-4.912 56.032,-8.574 40.6,-8.574 25.66,-8.574 12.13,-5.708 0,0"
             style="fill:#006db7;fill-opacity:1;fill-rule:nonzero;stroke:none"
             id="path22"
             inkscape:connector-curvature="0" /></g><g
           id="g24"
           transform="translate(422.31967,146.08016)"><path
             d="m 0,0 c -14.635,-19.244 -33.979,-28.866 -58.037,-28.866 -19.948,0 -37.133,7.067 -51.573,21.203 -14.032,14.332 -21.044,31.473 -21.044,51.418 0,20.042 7.012,37.141 21.044,51.271 14.44,14.032 31.625,21.05 51.573,21.05 24.058,0 43.402,-9.673 58.037,-29.022 L -20.744,66.458 c -8.729,13.726 -21.156,20.596 -37.293,20.596 -11.929,0 -22.207,-4.261 -30.823,-12.777 -8.52,-8.318 -12.78,-18.489 -12.78,-30.522 0,-11.928 4.26,-22.204 12.78,-30.823 C -80.244,4.312 -69.966,0 -58.037,0 -41.9,0 -29.473,7.016 -20.744,21.052 Z"
             style="fill:#006db7;fill-opacity:1;fill-rule:nonzero;stroke:none"
             id="path26"
             inkscape:connector-curvature="0" /></g><g
           id="g28"
           transform="translate(513.74257,167.13236)"><path
             d="M 0,0 -17.601,35.185 -35.188,0 Z M 54.572,-49.918 H 20.588 l -8.126,20.297 h -60.584 l -8.27,-20.297 h -33.973 l 72.764,144.941 z"
             style="fill:#006db7;fill-opacity:1;fill-rule:nonzero;stroke:none"
             id="path30"
             inkscape:connector-curvature="0" /></g><g
           id="g32"
           transform="translate(582.29727,117.21396)"><path
             d="M 0,0 V 144.942 L 84.046,66.9 v 78.042 h 29.321 V 0 L 29.021,78.486 V 0 Z"
             style="fill:#006db7;fill-opacity:1;fill-rule:nonzero;stroke:none"
             id="path34"
             inkscape:connector-curvature="0" /></g><g
           id="g36"
           transform="translate(218.86167,67.057656)"><path
             d="m 0,0 -3.8,-7.844 c -5.193,3.301 -11.902,5.447 -18.106,5.447 -7.467,0 -13.169,-2.655 -13.169,-8.863 0,-14.812 37.226,-7.22 37.226,-31.146 0,-13.177 -11.644,-18.999 -24.435,-18.999 -9.5,0 -19.246,3.297 -25.581,9.373 l 3.802,7.47 c 5.691,-5.323 14.307,-8.486 22.157,-8.486 7.848,0 14.176,2.909 14.312,9.499 0.373,16.078 -36.976,7.844 -36.855,31.528 0,12.787 11.019,18.105 23.178,18.105 C -13.294,6.084 -5.571,3.811 0,0"
             style="fill:#54565b;fill-opacity:1;fill-rule:nonzero;stroke:none"
             id="path38"
             inkscape:connector-curvature="0" /></g><g
           id="g40"
           transform="translate(240.38707,39.335056)"><path
             d="m 0,0 c 0,-14.684 10.006,-24.816 23.936,-24.816 13.92,0 23.932,10.132 23.932,24.816 0,14.561 -10.012,24.687 -23.932,24.687 C 10.006,24.687 0,14.561 0,0 m 57.741,0.129 c 0,-20.015 -14.053,-33.812 -33.805,-33.812 -19.757,0 -33.802,13.797 -33.802,33.812 0,19.878 14.045,33.547 33.802,33.547 19.752,0 33.805,-13.669 33.805,-33.547"
             style="fill:#54565b;fill-opacity:1;fill-rule:nonzero;stroke:none"
             id="path42"
             inkscape:connector-curvature="0" /></g><g
           id="g44"
           transform="translate(326.88027,79.341856)"><path
             d="m 0,0 v -8.603 h 19.113 v -8.105 H 0 V -73.31 h -9.752 v 56.602 h -8.61 v 8.105 h 8.61 v 7.337 c 0,14.569 10.249,22.422 21.399,22.422 5.063,-0.134 10.254,-1.653 14.309,-4.69 L 21.901,8.488 c -3.033,2.156 -6.705,3.416 -10.13,3.416 C 5.311,11.904 0,7.728 0,0"
             style="fill:#54565b;fill-opacity:1;fill-rule:nonzero;stroke:none"
             id="path46"
             inkscape:connector-curvature="0" /></g><g
           id="g48"
           transform="translate(391.32557,10.589956)"><path
             d="m 0,0 c -4.679,-3.163 -9.747,-4.937 -15.07,-5.062 -9.746,0 -16.965,5.823 -16.965,18.995 v 38.111 h -9.62 v 7.977 h 9.62 v 17.6 h 9.752 v -17.6 L -1.14,60.149 V 52.044 H -22.283 V 15.707 c 0,-8.108 3.168,-11.145 8.869,-11.145 3.41,0 6.956,1.134 10.634,3.415 z"
             style="fill:#54565b;fill-opacity:1;fill-rule:nonzero;stroke:none"
             id="path50"
             inkscape:connector-curvature="0" /></g><g
           id="g52"
           transform="translate(469.07947,6.0322554)"><path
             d="M 0,0 -19.631,54.189 -39.129,0 h -10.256 l -24.937,66.729 h 10.38 l 19.752,-56.475 19.375,56.475 h 10.374 L 5.185,10.254 24.693,66.729 H 34.938 L 10.259,0 Z"
             style="fill:#54565b;fill-opacity:1;fill-rule:nonzero;stroke:none"
             id="path54"
             inkscape:connector-curvature="0" /></g><g
           id="g56"
           transform="translate(555.31097,29.079156)"><path
             d="m 0,0 v 7.978 h -20.769 c -11.139,0 -16.964,-3.42 -16.964,-10.76 0,-7.355 5.956,-12.158 15.322,-12.158 11.273,0 19.883,5.698 22.411,14.94 m 0.131,-12.793 c -5.325,-7.214 -13.807,-10.758 -24.438,-10.758 -13.809,0 -22.661,8.864 -22.661,20.383 0,11.649 9.235,18.994 24.94,19.123 h 21.905 v 3.924 c 0,9.752 -6.08,15.578 -17.856,15.578 -7.341,0 -14.181,-2.792 -21.148,-7.601 l -4.169,7.216 c 8.605,5.694 15.823,8.991 27.213,8.991 16.469,0 25.577,-8.739 25.706,-23.038 L 9.757,-23.047 H 0.131 Z"
             style="fill:#54565b;fill-opacity:1;fill-rule:nonzero;stroke:none"
             id="path58"
             inkscape:connector-curvature="0" /></g><g
           id="g60"
           transform="translate(596.97597,57.948356)"><path
             d="M 0,0 C 4.434,9.752 12.657,15.063 23.937,15.193 V 5.199 C 9.875,5.441 1.137,-3.287 0,-16.463 V -51.916 H -9.878 V 14.813 H 0 Z"
             style="fill:#54565b;fill-opacity:1;fill-rule:nonzero;stroke:none"
             id="path62"
             inkscape:connector-curvature="0" /></g><g
           id="g64"
           transform="translate(682.82847,43.639756)"><path
             d="M 0,0 C -0.637,12.791 -9.247,20.896 -22.29,20.896 -34.942,20.896 -44.069,12.663 -45.581,0 Z m 8.864,-8.105 h -54.445 c 1.768,-13.039 11.264,-21.268 24.185,-21.268 8.227,0 15.443,2.906 20.627,8.358 l 5.455,-5.827 c -6.329,-7.093 -15.7,-11.145 -26.85,-11.145 -19.619,0 -33.164,13.797 -33.164,33.682 0,19.879 13.669,33.676 33.038,33.676 21.521,0.131 32.163,-14.81 31.154,-37.476"
             style="fill:#54565b;fill-opacity:1;fill-rule:nonzero;stroke:none"
             id="path66"
             inkscape:connector-curvature="0" /></g><g
           id="g68"
           transform="translate(-43.957629,-156.68644)"><g
             id="g70" /><g
             id="g82"><g
               clip-path="url(#clipPath74)"
               id="g80"><g
                 transform="translate(191.2305,448.6309)"
                 id="g78"><path
                   d="m 0,0 h -131.126 v -32.784 h 75.585 l -28.333,-49.088 h 36.788 z"
                   style="fill:#f15a29;fill-opacity:1;fill-rule:nonzero;stroke:none"
                   id="path76"
                   inkscape:connector-curvature="0" /></g></g></g></g><g
           id="g84"
           transform="translate(92.349473,199.08506)"><path
             d="M 0,0 H -36.787 L -84.039,-81.871 H 47.085 v 32.61 h -75.413 z"
             style="fill:#ff6c00;fill-opacity:1;fill-rule:nonzero;stroke:none"
             id="path86"
             inkscape:connector-curvature="0" /></g></g></g></g></svg>